<svg id="Brindis" xmlns="http://www.w3.org/2000/svg" viewBox="0 0 500 500"><defs><style>.cls-1,.cls-2{fill:#655b58;stroke:#655b58;stroke-linejoin:round;stroke-width:2px}.cls-2{stroke:#000;fill:#fff}.cls-3{fill:#fff;stroke-width:0}</style></defs><path class="cls-1" d="m164.5 77.5 62 17s17 128-73 200c0 0-13 15-17 29s-29 94-34 117 5 24 5 24l20 11s3 4-2 4-72-20-72-20-2-4 3-4 25 1 25 1 7-2 11-12 32-122 32-122 3-19 1-30-4-12-4-12-7-19-7-26-9-101 50-177z"/><path class="cls-2" d="m164.5 77.5 62 17s3 44-4 68-10 44-23 70-22 37.89-35 49.95-26 8.05-26 8.05-12.25-4.66-16.62-21.33-3.38-12.67-4.38-25.67-1.25-34.83 4.38-62.41 18.57-60.77 18.57-60.77 16.06-32.82 24.06-42.82z"/><path class="cls-1" d="M131.5 156.5h88.59s-21.59 119-74.59 125c0 0-42 7-14-125z"/><path class="cls-3" d="M132.5 203.5s-3 38 5 61c0 0-17-22-5-61z"/><path class="cls-1" d="m132.43 69.67-5.78-1.35c-1.25-.29-2.51.4-2.93 1.61l-1.96 5.6c-.11.31-.56.3-.65-.01l-1.72-5.68a2.495 2.495 0 0 0-2.86-1.73l-5.83 1.1c-.33.06-.54-.33-.32-.57l4.06-4.33c.88-.93.91-2.38.07-3.35l-3.87-4.5c-.22-.25.01-.64.34-.56l5.78 1.35c1.25.29 2.51-.4 2.93-1.61l1.96-5.6c.11-.31.56-.3.65.01l1.72 5.68a2.495 2.495 0 0 0 2.86 1.73l5.83-1.1c.33-.06.54.33.32.57l-4.06 4.33c-.88.93-.91 2.38-.07 3.35l3.87 4.5c.22.25-.01.64-.34.56zM238.11 29.81l-7.93-.54-3.82 6.96-3.5-7.13-7.95.17 4.44-6.6-4.12-6.8 7.93.54 3.82-6.96 3.5 7.13 7.95-.17-4.44 6.6 4.12 6.8zM254.88 61.06l-3.54-1.54-3.07 2.34-.43-3.84-3.57-1.48 3.11-2.3-.5-3.83 3.54 1.54 3.08-2.34.43 3.84 3.57 1.48-3.11 2.3.49 3.83zM219.16 66.57l-3.03-1.29-1.75 2.79c-.08.13-.27.08-.29-.07l-.4-3.27-3.29-.12c-.15 0-.21-.2-.09-.29l2.63-1.98-1.54-2.91c-.07-.13.06-.28.2-.22l3.03 1.29 1.75-2.79c.08-.13.27-.08.29.07l.4 3.27 3.29.12c.15 0 .21.2.09.29l-2.63 1.98 1.54 2.91c.07.13-.06.28-.2.22zM242.72 87.85l-5-2.91-3.84 4.33.02-5.79-5.67-1.16 5.03-2.87-1.83-5.49 5 2.91 3.84-4.33-.02 5.79 5.67 1.16-5.03 2.87 1.83 5.49zM335.69 79.59l-6.03-2.88-4.03 5.34c-.21.28-.66.15-.69-.2l-.52-6.67-6.64-.82c-.35-.04-.46-.5-.17-.69l5.51-3.78-2.61-6.16a.38.38 0 0 1 .52-.49l6.03 2.88 4.03-5.34c.21-.28.66-.15.69.2l.52 6.67 6.64.82c.35.04.46.5.17.69l-5.51 3.78 2.61 6.16c.14.32-.2.65-.52.49zM237.07 120.7l61.43-23.2s59.86 58 67.29 167c0 0-1.89 24.89-7.09 35.95-5.2 11.05 7.8 49.05 7.8 49.05l38 103s2 6 7 10 10 3 10 3l24-3s4 1.81 0 3.9-68 27.1-68 27.1-2 1-3-1 1-4 1-4l19-12s4-3 5-7-1-12-1-12l-53-129s-6-8-12-14-16-11-16-11-16.13-10-26.56-25-20.44-33-20.44-33-29.85-50.6-33.43-124.8z"/><path class="cls-2" d="M238.35 120.22 298.5 97.5s17 13 47 83 11 112 11 112-1 5-9 12-24-1-24-1-15-8-32-30-34-64-34-64-21.3-50.56-19.15-89.28z"/><path class="cls-1" d="M251.5 179.5h90.37s40.63 112-4.37 118-86-118-86-118z"/><path class="cls-3" d="M288.5 240.5s18 34 39 45c0 0-27-5-39-45z"/></svg>