<svg id="Cena" xmlns="http://www.w3.org/2000/svg" viewBox="0 0 500 500"><defs><style>.cls-1{stroke-miterlimit:10}.cls-1,.cls-2{fill:#655b58;stroke:#655b58}.cls-3{fill:#fff;stroke-width:0}.cls-2{stroke-linejoin:round}</style></defs><path class="cls-2" d="M479 383.5H21c-4.68 0-8.5 3.82-8.5 8.5s3.82 8.5 8.5 8.5h1.96c2.64 15.83 16.49 28 33.04 28h389c16.55 0 30.39-12.17 33.04-28h.96c4.68 0 8.5-3.83 8.5-8.5s-3.82-8.5-8.5-8.5zM263.5 214.39v-12.32c5.09-3.36 8.98-8.7 10.83-15.07h-46.65c1.73 5.98 5.28 11.06 9.92 14.44h25.91v.06h-26v12.89c-94.63 5.58-172.98 71.66-196.94 160.11h419.87c-23.96-88.45-102.31-154.53-196.94-160.11z"/><circle class="cls-3" cx="81.5" cy="345.5" r="11"/><path class="cls-3" d="M90.5 327.5s-8-4.94-1-16.97 15-21.03 33-38.03 49-29 49-29 34-12 40-12 10 6 10 6 5 11-4 14-25 8-25 8-17.4 6-42.2 20c-24.8 14-40.8 43-40.8 43s-6 13-19 5z"/><path class="cls-1" d="M189.5 89.5s-11 10-11 19 9 15 9 15 10 6 14 12-1 16-1 16-9 10-15 12c0 0 8.26 1.39 19-11 13-15-2-24-15-34-12.41-9.54 0-29 0-29zM302.5 89.5s-11 10-11 19 9 15 9 15 10 6 14 12-1 16-1 16-9 10-15 12c0 0 8.26 1.39 19-11 13-15-2-24-15-34-12.41-9.54 0-29 0-29zM243.55 51S229.5 63.77 229.5 75.26s11.49 19.15 11.49 19.15 12.77 7.66 17.88 15.32c5.11 7.66-1.28 20.43-1.28 20.43s-11.49 12.77-19.15 15.32c0 0 10.54 1.78 24.26-14.05 16.6-19.15-2.55-30.64-19.15-43.41-15.84-12.19 0-37.03 0-37.03z"/></svg>