<svg id="Capa_2" data-name="Capa 2" xmlns="http://www.w3.org/2000/svg" viewBox="0 0 468 355.96"><defs><style>.cls-1{stroke:#000;stroke-miterlimit:10;fill:#655b58}.cls-5{fill:#655b58;stroke-width:0}</style></defs><g id="Despedida2"><rect class="cls-5" y="283.46" width="468" height="25" rx="12" ry="12"/><path class="cls-5" d="M233.75 152.76s-111.1-41.16-88.25-114.8C168-34.54 235 21.01 235 21.01s67.5-56.05 95.5 14.95-96.75 116.8-96.75 116.8z"/><path class="cls-1" d="M44.5 203.96h85.35l15.52 22.33H393.5s48 3.67 49 14.67 0 42.01 0 42.01h-32.31l-85.69 24.99H68.57l-.07-25h-41v-79h17z"/><circle class="cls-1" cx="103.5" cy="307.96" r="47"/><circle cx="103" cy="308.46" r="18.5" style="fill:#fff;stroke:#000;stroke-miterlimit:10"/><circle cx="370.5" cy="307.96" r="47" style="stroke-width:2px;fill:#655b58;stroke:#000;stroke-miterlimit:10"/><circle cx="371" cy="308.46" r="18.5" style="stroke-width:2px;fill:#fff;stroke:#000;stroke-miterlimit:10"/><path class="cls-1" d="M129.85 203.96s.94-53.72 12.29-58.86 20.69 2.18 20.02 13.02.03 68.17.03 68.17h-36.94v-22.33h4.6zM307.81 226.29s-15.31-47.33-11.31-64.33 50.37 64.33 50.37 64.33h-39.06z"/></g></svg>