<svg id="Fiesta" xmlns="http://www.w3.org/2000/svg" viewBox="0 0 500 500"><defs><style>.cls-1,.cls-3{fill:#655b58}.cls-1,.cls-4{stroke-width:0}.cls-3{stroke:#655b58;stroke-miterlimit:10}.cls-4{fill:#fff}</style></defs><circle class="cls-1" cx="193" cy="78" r="35.5"/><ellipse class="cls-1" cx="146.5" cy="80" rx="5" ry="11.5"/><ellipse class="cls-1" cx="239.5" cy="80" rx="5" ry="11.5"/><path d="M146.5 68.5s10-37.81 46.5-36.9 46.5 36.9 46.5 36.9" style="stroke:#655b58;stroke-miterlimit:10;fill:none"/><path class="cls-1" d="M103.5 23.5s5-14 16-10 8 14 8 14 0 7-6 17-5.81 19.52-5.81 19.52-2.19 9.48 3.81 19.48 16 25 31 34 26 12 26 12 47 7.83 63 13.41 21 22.59 21 22.59 2 13-3 24-26 33-26 33l-22 18s-9 3-17-2 0-17 0-17l31-25s11-12 11-19-2-10-2-10-4-7-9 3-9 25-9 25-1 6-11 13-16 14-16 14-4 6 0 17h-48s-8-33-7-52 1-32 1-32 2-13 1-16-12-14-12-14-16-13-25-30-5-38-5-38 5-26 11-34zM39.5 251.5h260v239h-260zM139.5 245.5h125v6h-125zM98.5 245.5h10v5h-10zM77.5 245.5h10v5h-10zM56.5 245.5h10v5h-10z"/><path class="cls-3" d="M321.5 251.5h139v239h-139z"/><circle class="cls-4" cx="391" cy="322" r="52.5"/><circle class="cls-3" cx="390.5" cy="321.5" r="22"/><circle class="cls-4" cx="390.5" cy="431" r="39"/><circle class="cls-3" cx="391.39" cy="430.63" r="16.34"/><text transform="rotate(-8.15 617.752 -1923.399) scale(.81 1)" style="fill:#000;stroke-width:2px;font-size:74.64px;font-family:'lasolsi_figuras',lasolsi_figuras;stroke:#655b58;stroke-miterlimit:10"><tspan x="0" y="0">f</tspan></text><text transform="rotate(-15.54 478.385 -1297.304) scale(.82 1)" style="font-size:69.44px;fill:#000;stroke-width:2px;font-family:'lasolsi_figuras',lasolsi_figuras;stroke:#655b58;stroke-miterlimit:10"><tspan x="0" y="0">d</tspan></text><text transform="rotate(18.2 -205.705 1017.853) scale(1.02 1)" style="font-family:'lasolsi_figuras',lasolsi_figuras;font-size:68.19px;stroke:#655b58;stroke-miterlimit:10;fill:#655b58"><tspan x="0" y="0">D</tspan></text></svg>