<svg id="iglesia" xmlns="http://www.w3.org/2000/svg" viewBox="0 0 500 500"><defs><style>.cls-1,.cls-2{fill:#655b58;stroke:#655b58}.cls-1{stroke-miterlimit:10}.cls-2{stroke-linejoin:round}</style></defs><path class="cls-1" d="M33 490.5v-96.11l71.08-28.03V490.5H33zM466.5 490.5v-96.11l-71.08-28.03V490.5h71.08z"/><path class="cls-2" d="M293.3 39.98h-34.04V5.94h-20.02v34.04H206.2V60h33.04v46l10.51-12.96 9.51 12.75V60h34.04V39.98z"/><path class="cls-2" d="m249.71 100.55-68.12 80.09v100.12l69.12-43.05 67.21 43.05V180.64l-68.21-80.09zm20.56 116.63h-41.05v-40.56c0-6.35 5.15-11.5 11.5-11.5h18.04c6.35 0 11.5 5.15 11.5 11.5v40.56z"/><path class="cls-2" d="m250.25 245.22-141.16 85.1V490.5h281.32V330.32l-140.16-85.1zm-.5 41.04c10.51 0 19.02 8.52 19.02 19.02s-8.52 19.02-19.02 19.02-19.02-8.52-19.02-19.02 8.52-19.02 19.02-19.02zm-72.58 169.2h-40.05v-43.05c0-11.06 8.96-20.02 20.02-20.02 11.06 0 20.02 8.96 20.02 20.02v43.05zm104.12 24.03h-65.08v-63.57c0-17.97 14.57-32.54 32.54-32.54s32.54 14.57 32.54 32.54v63.57zm80.09-24.03h-40.05v-43.05c0-11.06 8.96-20.02 20.02-20.02s20.02 8.96 20.02 20.02v43.05z"/></svg>