<svg id="Recien_casados" xmlns="http://www.w3.org/2000/svg" viewBox="0 0 500 500"><defs><style>.cls-1{fill:#655b58;stroke:#655b58;stroke-miterlimit:10}</style></defs><circle class="cls-1" cx="164.75" cy="48.75" r="39.75"/><path class="cls-1" d="M67.5 148.5v142c0 9.94 8.06 18 18 18h2c9.94 0 18-8.06 18-18v-142c0-1.24-.13-2.45-.36-3.62l-37.45 1.17c-.11.8-.18 1.61-.18 2.44z"/><path class="cls-1" d="M433.5 221.5c-9-27-23-45-29-97s0-49-7.31-75.75S363.5 4.5 336.17 4.5s-54.67 25-57.96 44.25-7.71 74.75-7.71 74.75l18 36 5-3-5 33s-8-16-24-49-44.41-37-44.41-37H191.5c-6.21 29.65-13.84 45.04-22.57 48.45-2.06 1.34-5.26 2.22-9.27-.59-1.04-.49-2.1-1.1-3.16-1.86-14-10-20.16-46.5-20.16-46.5H105.5c-39 8.5-38 43.06-38 43.06h.18c1.19-8.79 8.7-15.56 17.82-15.56h2c8.7 0 15.96 6.18 17.64 14.38h.36c4-6.64 8-4.38 8-4.38v335s3 24 24.2 20.26c21.2-3.74 21.8-19.26 21.8-19.26v-189h11v189s2 21 23.07 19.14c21.07-1.86 21.93-19.14 21.93-19.14v-218c-7 4-18 4-18 4s-32-4-30-32 34-33 34-33v-1c1-12 14-24 14-24v-32h2l18 27 61 58s11 13 3 29-24 16-24 16l-17 111s1 3 3 5 4 2 4 2l23 1 1 88s5 20 21.65 18 21.35-18 21.35-18l1-88h10v87s4 20 22.03 19 20.97-17 20.97-17l.99-90h19.01c13 0 11-11 11-11l-20-117s-29 4-44 9-28-3-28-3c-27-26 0-48 0-48s-9-30-12-37 1-9 1-9 34-1 44 0 5 8 5 8l-10 30 26-6v-22l11 31-54 12c-30 23 5 36 5 36s64-11 80-18 12-22 12-22zm-99.59-59.76-3.28.4 1.39 1.84a3 3 0 0 1-4.79 3.61l-1.14-1.52-.96 2.74a3 3 0 0 1-3.82 1.84 3 3 0 0 1-1.84-3.82l1.21-3.46-3.64.45c-1.64.2-3.14-.97-3.34-2.61-.2-1.64.97-3.14 2.61-3.34l3.28-.4-2.59-3.44a3 3 0 0 1 4.79-3.61l2.35 3.11.96-2.74a3 3 0 0 1 3.82-1.84 3 3 0 0 1 1.84 3.82l-1.21 3.46 3.64-.45c1.64-.2 3.14.97 3.34 2.61.2 1.64-.97 3.14-2.61 3.34zm3.59-15.24c0 1.66-1.34 3-3 3s-3-1.34-3-3v-1.9l-2.42 1.61c-1.38.92-3.24.54-4.16-.84s-.54-3.24.84-4.16l3.05-2.03-3.17-1.83c-1.43-.83-1.93-2.66-1.1-4.1s2.66-1.93 4.1-1.1l2.86 1.65v-4.3c0-1.66 1.34-3 3-3s3 1.34 3 3v3.9l2.42-1.61a3 3 0 0 1 4.16.84 3 3 0 0 1-.84 4.16l-3.05 2.03 3.17 1.83c1.43.83 1.93 2.66 1.1 4.1s-2.66 1.93-4.1 1.1l-2.86-1.65v2.3zm24.96 10.03a2.99 2.99 0 0 1-2.92 3.08l-3.66.1 1.72 3.24c.78 1.46.22 3.28-1.24 4.06-1.46.78-3.28.22-4.06-1.24l-1.55-2.92-1.22 1.95c-.88 1.4-2.73 1.83-4.13.95s-1.83-2.73-.95-4.13l1.01-1.61-2.9.08c-1.66.05-3.04-1.26-3.08-2.92s1.26-3.04 2.92-3.08l3.66-.1-1.72-3.24a3.005 3.005 0 0 1 1.24-4.06c1.46-.78 3.28-.22 4.06 1.24l1.55 2.92 2.28-3.65c.88-1.4 2.73-1.83 4.13-.95 1.4.88 1.83 2.73.95 4.13l-2.07 3.31 2.9-.08a2.99 2.99 0 0 1 3.08 2.92zm5.04-39.03h-71s-11 1-11 2l6-64s8-34.49 46-36.24c38-1.76 47 37.24 47 37.24l6 69s-9-8-23-8z"/><path class="cls-1" d="M87.5 130.5h-2c-9.11 0-16.62 6.78-17.82 15.56l37.45-1.17c-1.67-8.21-8.93-14.38-17.64-14.38zM179.5 227.09v6.41s5 18 18.29 16.5 31.71-10.5 31.71-10.5c-28-24-26-30-26-30-22 4-24 17.59-24 17.59zM288.5 253.5c9-14 1-21 1-21l-62-58s-8 9-14 17-1 16-1 16l50 49s17 11 26-3z"/><circle class="cls-1" cx="334.5" cy="138.5" r="3"/><path class="cls-1" d="M322.99 157a3 3 0 1 0 3.611 4.79 3 3 0 0 0-3.611-4.79zM352.83 153.88a2.996 2.996 0 1 0 .95 4.13c.87-1.4.45-3.26-.95-4.13z"/><circle class="cls-1" cx="338" cy="66" r="37.5"/><path class="cls-1" d="M155.5 101.5c-3 0-2 3-2 3l3.52 17h14.48s2-11 3-15-1-5-1-5h-18zM168.93 151.95c1.65-1.08 2.57-2.45 2.57-2.45 4-10-.95-25-.95-25H157.5c-4 9-1 24-1 24 1.1 1.22 2.16 2.16 3.16 2.86 3.21 1.51 6.3 1.75 9.27.59z"/><path class="cls-1" d="M168.93 151.95c-2.97 1.16-6.06.93-9.27-.59 4 2.81 7.21 1.93 9.27.59z"/></svg>