<svg id="Torta" xmlns="http://www.w3.org/2000/svg" viewBox="0 0 500 500"><defs><style>.cls-1{fill:#fff;stroke-width:0}.cls-2{fill:#655b58;stroke:#655b58;stroke-linejoin:round}</style></defs><path class="cls-2" d="M443.5 449.81V329.5h-1.09c-24.48 9.62-101.8 16.66-193.41 16.66S80.07 339.13 55.59 329.5h-.09v120.56c-23.41 3.94-37 8.64-37 13.69C18.5 477.7 122.26 489 250.25 489S482 477.7 482 463.75c0-5.15-14.18-9.94-38.5-13.94z"/><path class="cls-1" d="M413.5 390.5c-15.9 0-29.62-9.27-36.08-22.7.28-.76.54-1.52.78-2.3h-12.42c.24.77.5 1.54.78 2.3-6.45 13.43-20.18 22.7-36.08 22.7s-28.85-8.77-35.51-21.6c.44-1.12.86-2.25 1.22-3.4h-13.42c.36 1.15.78 2.29 1.22 3.4-6.66 12.83-20.06 21.6-35.51 21.6s-28.1-8.28-34.94-20.52c.62-1.46 1.16-2.95 1.64-4.48h-14.42a53.19 53.19 0 0 0 1.64 4.48c-6.84 12.24-19.92 20.52-34.94 20.52-15.9 0-29.62-9.27-36.08-22.7.28-.76.54-1.52.78-2.3h-12.42c.24.77.5 1.54.78 2.3-6.45 13.43-20.18 22.7-36.08 22.7-11.42 0-21.71-4.79-29-12.47v13.19a49.741 49.741 0 0 0 29 9.28c17.28 0 32.52-8.77 41.5-22.11 8.98 13.33 24.22 22.11 41.5 22.11s31.41-8.16 40.5-20.69c9.09 12.53 23.84 20.69 40.5 20.69s31.96-8.47 41-21.4c9.04 12.93 24.03 21.4 41 21.4s32.52-8.77 41.5-22.11c8.98 13.33 24.22 22.11 41.5 22.11a49.76 49.76 0 0 0 30-10v-13.56c-7.33 8.31-18.05 13.56-30 13.56z"/><path class="cls-2" d="M403.52 299.42V204h-.86c-19.42 7.63-80.74 13.21-153.39 13.21S115.29 211.63 95.88 204h-.07v95.62c-18.56 3.13-29.34 6.86-29.34 10.86 0 11.06 82.29 20.03 183.8 20.03s183.8-8.97 183.8-20.03c0-4.09-11.25-7.89-30.53-11.05z"/><path class="cls-1" d="M379.72 252.38c-12.61 0-23.5-7.35-28.61-18.01.22-.6.43-1.21.62-1.82h-9.85c.19.61.4 1.22.62 1.82-5.12 10.65-16 18.01-28.61 18.01s-22.88-6.95-28.16-17.13c.35-.89.68-1.78.97-2.7h-10.64c.29.92.62 1.81.97 2.7-5.28 10.17-15.91 17.13-28.16 17.13s-22.28-6.57-27.71-16.28c.49-1.16.92-2.34 1.3-3.55h-11.43c.38 1.21.81 2.39 1.3 3.55-5.42 9.71-15.8 16.28-27.71 16.28-12.61 0-23.5-7.35-28.61-18.01.22-.6.43-1.21.62-1.82h-9.85c.19.61.4 1.22.62 1.82-5.12 10.65-16 18.01-28.61 18.01-9.06 0-17.22-3.8-23-9.89v10.46a39.453 39.453 0 0 0 23 7.36c13.71 0 25.79-6.96 32.91-17.53 7.12 10.58 19.21 17.53 32.91 17.53s24.91-6.47 32.12-16.41c7.21 9.94 18.9 16.41 32.12 16.41s25.35-6.71 32.52-16.97c7.17 10.26 19.06 16.97 32.52 16.97s25.79-6.96 32.91-17.53c7.12 10.58 19.21 17.53 32.91 17.53 8.93 0 17.17-2.95 23.79-7.93v-10.75c-5.81 6.59-14.31 10.75-23.79 10.75z"/><path class="cls-2" d="M359.9 181.26V113h-.62c-13.89 5.46-57.76 9.45-109.74 9.45s-95.85-3.99-109.74-9.45h-.05v68.41c-13.28 2.24-20.99 4.9-20.99 7.77 0 7.91 58.87 14.33 131.49 14.33s131.49-6.41 131.49-14.33c0-2.92-8.05-5.64-21.84-7.91z"/><path class="cls-1" d="M342.88 147.61c-9.02 0-16.81-5.26-20.47-12.88.16-.43.31-.86.44-1.3h-7.04c.14.44.29.87.44 1.3-3.66 7.62-11.45 12.88-20.47 12.88s-16.37-4.98-20.15-12.25c.25-.63.49-1.28.69-1.93h-7.61c.21.66.44 1.3.69 1.93-3.78 7.28-11.38 12.25-20.15 12.25s-15.94-4.7-19.82-11.64c.35-.83.66-1.68.93-2.54h-8.18c.27.87.58 1.71.93 2.54-3.88 6.95-11.3 11.64-19.82 11.64-9.02 0-16.81-5.26-20.47-12.88.16-.43.31-.86.44-1.3h-7.04c.14.44.29.87.44 1.3-3.66 7.62-11.45 12.88-20.47 12.88-6.48 0-12.32-2.72-16.45-7.07v7.48a28.235 28.235 0 0 0 16.45 5.26c9.81 0 18.45-4.98 23.55-12.54 5.1 7.57 13.74 12.54 23.55 12.54s17.82-4.63 22.98-11.74c5.16 7.11 13.52 11.74 22.98 11.74s18.13-4.8 23.26-12.14c5.13 7.34 13.63 12.14 23.26 12.14s18.45-4.98 23.55-12.54c5.1 7.57 13.74 12.54 23.55 12.54 6.39 0 12.28-2.11 17.02-5.68v-7.69c-4.16 4.72-10.24 7.69-17.02 7.69z"/><path class="cls-2" d="M265.39 80.64c3.42-3.21 7.71-7.19 13.11-12.14 24-22 19-36 19-36s-1-20-17.33-23.16S249 23.17 249 23.17C237.5 6.84 225.5 9.5 225.5 9.5c-43.56 10.37-14.35 50.43 6.43 71.15-52.92.97-93.43 6.35-93.43 12.85 0 7.18 49.47 13 110.5 13s110.5-5.82 110.5-13c0-6.52-40.86-11.93-94.11-12.86z"/></svg>